<?xml version="1.0" encoding="UTF-8"?>
<svg width="124" height="48" viewBox="0 0 124 48" fill="none" xmlns="http://www.w3.org/2000/svg">
    <g filter="url(#filter0_d_4292_9095)">
        <path d="M11 36L0 0H124L113 36C111 42.5 105 47.5 98 47.5H26C19 47.5 13 42.5 11 36Z" fill="#141415"/>
        <path d="M11 36L0 0H124L113 36C111 42.5 105 47.5 98 47.5H26C19 47.5 13 42.5 11 36Z" fill="url(#paint0_linear_4292_9095)"/>
        <path d="M124 0.5L113.458 36.1812C111.58 42.8903 105.391 47.5 98.3254 47.5H25.6746C18.609 47.5 12.4197 42.8903 10.5423 36.1812L0 0.5H124Z" stroke="url(#paint2_linear_4292_9095)" stroke-opacity="0.3"/>
    </g>
    <defs>
        <filter id="filter0_d_4292_9095" x="-6" y="-6" width="136" height="60" filterUnits="userSpaceOnUse" color-interpolation-filters="sRGB">
            <feFlood flood-opacity="0" result="BackgroundImageFix"/>
            <feColorMatrix in="SourceAlpha" type="matrix" values="0 0 0 0 0 0 0 0 0 0 0 0 0 0 0 0 0 0 127 0" result="hardAlpha"/>
            <feOffset dy="1"/>
            <feGaussianBlur stdDeviation="3"/>
            <feComposite in2="hardAlpha" operator="out"/>
            <feColorMatrix type="matrix" values="0 0 0 0 0 0 0 0 0 0 0 0 0 0 0 0 0 0 0.25 0"/>
            <feBlend mode="normal" in2="BackgroundImageFix" result="effect1_dropShadow_4292_9095"/>
            <feBlend mode="normal" in="SourceGraphic" in2="effect1_dropShadow_4292_9095" result="shape"/>
        </filter>
        <linearGradient id="paint0_linear_4292_9095" x1="62" y1="48" x2="62" y2="0" gradientUnits="userSpaceOnUse">
            <stop stop-color="rgba(43, 46, 57, 0.5)"/>
            <stop offset="1" stop-color="rgba(43, 46, 57, 0)"/>
        </linearGradient>
        <linearGradient id="paint2_linear_4292_9095" x1="62" y1="0" x2="62" y2="48" gradientUnits="userSpaceOnUse">
            <stop stop-color="rgba(163, 171, 187, 0)"/>
            <stop offset="1" stop-color="rgba(163, 171, 187, 1)"/>
        </linearGradient>
    </defs>
</svg>