<?xml version="1.0" encoding="UTF-8"?>
<svg width="20" height="20" viewBox="0 0 20 20" fill="none" xmlns="http://www.w3.org/2000/svg">
    <path fill-rule="evenodd" clip-rule="evenodd" d="M11.4137 8.35477L11.0262 6.66851C10.9983 6.54731 11.1611 6.47389 11.2412 6.57178L12.7775 8.46373C12.7947 8.48487 12.8189 8.49969 12.8462 8.50568L14.8057 8.93745C14.929 8.96483 14.9321 9.13264 14.8094 9.16411L12.8905 9.64889C12.8745 9.65286 12.8595 9.65993 12.8465 9.66965C12.8334 9.67936 12.8226 9.69153 12.8146 9.70541L10.1063 14.4367C10.0958 14.4551 10.0804 14.4704 10.0617 14.4811C10.0429 14.4918 10.0215 14.4974 9.9997 14.4974C9.9779 14.4974 9.9565 14.4918 9.93775 14.4811C9.919 14.4704 9.90358 14.4551 9.89313 14.4367L7.18481 9.70541C7.1769 9.69159 7.16615 9.67946 7.1532 9.66974C7.14026 9.66003 7.1254 9.65294 7.10951 9.64889L5.19062 9.16411C5.06795 9.13264 5.07099 8.96483 5.19426 8.93745L7.15384 8.50568C7.18106 8.49969 7.2053 8.48487 7.22246 8.46373L8.7594 6.57178C8.83895 6.47389 9.00169 6.54731 8.97376 6.66851L8.58634 8.35477C8.58243 8.37178 8.58255 8.38941 8.58669 8.40637C8.59082 8.42333 8.59886 8.43918 8.61022 8.45276C8.62158 8.46634 8.63597 8.47731 8.65233 8.48486C8.66869 8.4924 8.6866 8.49633 8.70475 8.49636H11.2953C11.3134 8.49633 11.3313 8.4924 11.3477 8.48486C11.364 8.47731 11.3784 8.46634 11.3898 8.45276C11.4011 8.43918 11.4092 8.42333 11.4133 8.40637C11.4175 8.38941 11.4176 8.37178 11.4137 8.35477ZM11.4019 9.67165C11.3865 9.66511 11.3698 9.66173 11.3529 9.66171H8.64706L8.61245 9.66637C8.5963 9.67103 8.58134 9.67887 8.56852 9.68938C8.5557 9.6999 8.54531 9.71286 8.538 9.72744C8.53068 9.74202 8.52662 9.7579 8.52605 9.77407C8.52549 9.79024 8.52844 9.80635 8.53472 9.82137L9.88706 13.0663L9.90649 13.0983C9.91995 13.1139 9.93741 13.1259 9.95715 13.133C9.97689 13.1402 9.99823 13.1423 10.0191 13.1391C10.0399 13.1359 10.0595 13.1276 10.076 13.1149C10.0924 13.1023 10.1052 13.0857 10.113 13.0669L11.4653 9.82137L11.4738 9.78874C11.4753 9.77262 11.4733 9.75638 11.4679 9.74105C11.4625 9.72572 11.4539 9.71163 11.4425 9.69968C11.4312 9.68773 11.4173 9.67818 11.4019 9.67165Z" fill="#00EFFF"/>
    <path fill-rule="evenodd" clip-rule="evenodd" d="M10 20.0003C15.5228 20.0003 20 15.5232 20 10.0003C20 4.47746 15.5228 0.000305176 10 0.000305176C4.47715 0.000305176 0 4.47746 0 10.0003C0 15.5232 4.47715 20.0003 10 20.0003ZM13.5326 5.10204C13.3764 5.03497 13.2073 5.0003 13.0362 5.00031H6.96378L6.86054 5.00438C6.69005 5.01836 6.52455 5.06674 6.3749 5.14637C6.22525 5.226 6.09483 5.33507 5.99218 5.46645L3.74294 8.34428L3.68526 8.42469C3.54461 8.64013 3.48125 8.89379 3.50482 9.147C3.52839 9.40021 3.6376 9.63908 3.81581 9.82719L9.4383 15.7617L9.4972 15.8177C9.64669 15.9445 9.84219 16.0097 10.0414 15.9992C10.2406 15.9887 10.4275 15.9034 10.5617 15.7617L16.1842 9.82777L16.2498 9.75203C16.4108 9.55024 16.4987 9.30348 16.5 9.04933C16.5013 8.79518 16.416 8.54759 16.2571 8.34428L14.0078 5.46645L13.9422 5.38953C13.8283 5.26709 13.6887 5.16912 13.5326 5.10204Z" fill="#00EFFF"/>
</svg>